<?xml version="1.0" encoding="UTF-8" standalone="no"?>
<!-- Created with Inkscape (http://www.inkscape.org/) -->

<svg
   width="170mm"
   height="47mm"
   viewBox="0 0 170 47"
   version="1.1"
   id="svg1"
   inkscape:version="1.4.2 (ebf0e940d0, 2025-05-08)"
   sodipodi:docname="logo_inkscape.svg"
   xmlns:inkscape="http://www.inkscape.org/namespaces/inkscape"
   xmlns:sodipodi="http://sodipodi.sourceforge.net/DTD/sodipodi-0.dtd"
   xmlns="http://www.w3.org/2000/svg"
   xmlns:svg="http://www.w3.org/2000/svg">
  <sodipodi:namedview
     id="namedview1"
     pagecolor="#ffffff"
     bordercolor="#000000"
     borderopacity="0.25"
     inkscape:showpageshadow="2"
     inkscape:pageopacity="0.0"
     inkscape:pagecheckerboard="true"
     inkscape:deskcolor="#d1d1d1"
     inkscape:document-units="mm"
     inkscape:zoom="0.80978535"
     inkscape:cx="48.160911"
     inkscape:cy="406.89795"
     inkscape:window-width="1920"
     inkscape:window-height="1131"
     inkscape:window-x="0"
     inkscape:window-y="0"
     inkscape:window-maximized="1"
     inkscape:current-layer="layer1"
     showgrid="false" />
  <defs
     id="defs1" />
  <g
     inkscape:label="Layer 1"
     inkscape:groupmode="layer"
     id="layer1">
    <path
       style="font-size:49.9999px;font-family:'Londrina Shadow';-inkscape-font-specification:'Londrina Shadow';fill:#00b592;stroke:#00b592;stroke-width:0.79375;stroke-miterlimit:1.6;paint-order:stroke markers fill"
       d="m 25.145622,35.625558 q -1.726059,0.30206 -2.761693,0.30206 -1.984968,0 -3.883631,-0.431514 -0.172606,-0.517818 -0.30206,-0.647272 -0.129454,-0.129455 -0.30206,-0.172606 -0.172606,0 -0.258908,-0.04315 -0.345212,-1.078784 -0.949333,-3.495265 -0.345211,-1.423998 -0.604121,-2.071269 -0.215756,-0.647273 -0.474665,-0.647273 -0.345212,0 -0.60412,0.04316 -0.215758,0 -0.604121,0 -0.30206,0.819877 -0.60412,2.632238 -0.345212,1.682907 -0.60412,2.67539 -0.258908,0.992484 -0.733575,1.898664 -0.129454,0 -0.388363,0.04315 -0.215758,0.04315 -0.560969,0.04315 -0.474666,-0.04315 -1.9849667,-0.04315 l -1.8555117,-0.04315 -2.2870279,-0.04316 0.1294554,-0.863029 h -0.992484 l 0.6041208,-3.193207 q 1.2082407,-6.990536 2.6322371,-13.765313 1.4239983,-6.81793 3.581571,-13.9810707 0.776726,-0.086304 0.906181,-0.086304 0.172606,0 1.121938,0.043157 0.949331,0.043147 3.969933,-0.2589097 0.172606,0.7335752 0.215758,0.9493329 l 0.647271,-0.086304 q 0.388364,2.2007237 2.718541,11.9098005 0.863029,3.53842 0.906181,3.754176 z M 16.989997,3.995544 q -1.898663,0.1726056 -3.754175,0.1726056 h -0.906181 q -0.517818,0 -0.647272,0.043157 Q 9.6110996,11.15869 8.2302524,17.71771 6.8925573,24.276731 5.5548632,31.698781 5.4254088,32.518658 5.2959544,33.252233 5.1664991,33.942656 5.0801968,34.33102 l 0.086304,0.04315 h 1.0356353 l 3.4089644,0.04315 q 0.4315155,0.04315 1.0356355,0.04315 0.474666,0 0.560969,-0.04315 l 0.129454,-0.04315 q 0.388363,-0.647271 0.604121,-1.553452 0.215756,-0.90618 0.474666,-2.416481 0.431514,-2.416481 0.819877,-3.236359 0.474666,0 0.776726,0 0.30206,-0.04315 0.474666,-0.04315 h 0.560969 l 0.86303,0.0863 q 0.345211,0.776726 0.690422,2.157573 0.388363,1.380847 0.474666,1.726058 0.431514,2.028118 0.863029,3.150056 h 0.04316 q 1.682907,0.388363 3.538419,0.388363 1.078786,0 2.243876,-0.215757 v -0.04315 L 20.528417,19.271157 Z m -4.056235,18.080459 q 0.517816,-3.84048 0.474664,-3.495268 0.345213,-2.891148 0.56097,-4.185691 0.258909,-1.337695 0.517817,-1.337695 0.30206,0 0.647272,2.028119 0.388364,2.028117 0.992483,6.990535 l -2.157572,0.04315 z m 2.11442,-5.35078 -0.690423,4.919265 h 1.251392 z m 29.558745,19.072941 q -1.208242,-0.172606 -2.761694,-0.172606 l -2.071269,0.04315 q -0.604121,0.04315 -1.726058,0.04315 -0.04315,-0.30206 -0.04315,-0.906181 l -0.819877,0.04316 q -0.129453,-2.330186 -0.129453,-7.724118 l -0.08631,-5.307629 q -0.129453,0.345211 -0.517817,1.380847 -0.345211,1.035635 -0.690422,1.553452 -0.345212,0.474666 -0.647272,0.474666 -0.345212,0 -0.863029,-0.863029 -0.647272,-0.04316 -1.553453,-2.200725 -0.04315,1.035636 -0.04315,3.020604 0,3.797327 0.431514,10.356347 -1.682907,0.258909 -3.581571,0.258909 l -1.380846,0.04315 q -1.035635,0 -1.639755,-0.215756 -0.560968,-0.172606 -0.560968,-0.776727 h -0.215758 q -0.345211,0 -0.60412,-0.517816 -0.0863,-0.25891 -0.129454,-2.028119 0,-1.812362 0,-5.005569 0,-11.694042 0.129454,-22.7839659 1.165089,-0.3883632 2.632238,-0.3883632 0.819879,0 1.251393,0.043147 l 1.380845,0.043147 q 0.776727,0 1.251393,-0.043147 l 0.60412,0.9061807 0.258909,-0.043147 q 0.819878,0.9493319 1.81236,3.8836308 l 0.388364,1.0787853 q 0.30206,-1.4239973 0.949331,-3.2363579 0.690424,-1.8555126 1.294544,-2.7185422 0.604121,0.086304 1.035635,0.086304 0.776727,0 2.847996,-0.086304 1.682907,-0.1294544 3.106904,-0.1294544 l -0.04315,0.8630287 h 0.90618 q -0.04315,1.0787872 -0.04315,3.7110252 l 0.04315,4.5309029 q 0.04316,1.5103 0.04316,4.574054 v 1.596603 q 0,1.596604 -0.0863,2.416482 v -0.04316 z M 43.441836,20.695156 q 0.08631,-0.863029 0.08631,-2.545936 v -1.682906 q 0,-2.934299 -0.04315,-4.401449 l -0.04316,-4.4445989 q 0,-2.2007238 0.04316,-3.279511 -1.337695,0 -3.020602,0.1294544 l -2.67539,0.086304 q -0.604119,0 -0.690422,-0.043147 -0.388364,0.5178175 -0.86303,1.8986637 -0.474665,1.3376951 -0.863029,2.632239 -0.258908,0.8630287 -0.517817,1.5534518 -0.215757,0.690423 -0.30206,0.647272 -0.25891,0 -0.604121,-0.776726 Q 33.603311,9.69154 32.912888,7.9223306 32.524524,6.8435444 32.136162,5.8942125 31.747798,4.9017294 31.445738,4.5996695 h -0.04316 q -0.474666,0.043147 -1.5103,0.043147 l -1.553449,-0.043147 h -0.690423 q -1.423998,0 -2.114421,0.2157567 -0.129455,11.0467718 -0.129455,22.4819058 0,4.574054 0.04315,5.868597 0.0863,1.251393 0.258909,1.251393 l 3.236359,0.04315 q 1.639755,0 2.804844,-0.172605 -0.388363,-5.911749 -0.388363,-9.967985 0,-3.236359 0.258909,-6.386416 l 0.129454,0.431516 0.345211,0.906179 q 0.690424,1.984968 1.251393,3.322662 0.560969,1.337695 0.949331,1.337695 0.172606,0 0.604121,-1.035634 0.431515,-1.035636 0.863029,-2.243876 0.949332,-2.502784 1.251392,-3.020602 0.388363,3.495268 0.474666,10.96047 0,0.992483 0.04315,2.847995 0.04315,1.812361 0.0863,2.97745 l 2.718541,-0.04316 h 1.553452 q 0.474667,0 1.423998,0.0863 z m 21.575702,0.0863 q -1.510301,0.258909 -3.322662,0.258909 -1.510301,0 -3.452117,-0.345212 l 0.04316,-0.345211 q 0,-0.25891 -0.215758,-0.345213 -0.215756,-0.129454 -0.431515,-0.129454 -0.215757,-0.04315 -0.258908,-0.04315 l 0.04315,-0.345212 q 0,-0.690423 -0.431515,-0.949332 -0.431514,-0.30206 -1.121937,-0.431515 -0.776726,0.215757 -1.208241,0.647271 -0.431515,0.431515 -0.431515,0.949333 0,0.819877 0.86303,1.165089 l -0.0863,-0.04316 q 4.832962,0.776727 7.465201,2.502785 2.632238,1.726058 2.632238,5.480233 0,3.969934 -2.589087,5.782295 -2.589087,1.812362 -6.817928,1.812362 -3.020603,0 -5.393933,-1.16509 -2.373329,-1.121937 -3.711024,-3.063753 -1.294543,-1.984966 -1.294543,-4.315145 v -0.60412 q 1.337695,-0.172607 2.934298,-0.172607 l 2.243876,0.04316 q 0.690423,0.04315 2.028118,0.04315 0,0.345212 0.215758,0.86303 h 0.647271 q 0,1.510301 1.941815,1.510301 1.76921,0 1.76921,-1.72606 0,-0.647271 -0.690424,-0.906178 -0.647271,-0.302061 -2.114421,-0.604121 -1.855511,-0.345211 -2.847994,-0.776726 h 0.04315 q -2.632234,-0.906181 -4.185687,-2.9343 -1.553452,-2.07127 -1.553452,-4.271993 0,-2.028119 1.294543,-3.840479 1.337695,-1.812362 3.495268,-2.459633 1.467149,-0.431514 4.487751,-0.431514 2.891147,0 4.74666,0.431514 1.855512,0.431515 3.020601,1.898663 2.589088,2.114423 2.589088,6.429568 z m -4.703509,-8.241927 q -2.330178,-0.517818 -5.307628,-0.517818 -8.846047,0 -8.846047,6.300111 0,1.941816 1.165088,3.581571 1.16509,1.596603 3.408964,2.37333 1.035636,0.474667 3.279511,0.906181 1.855513,0.431515 2.675391,0.863029 0.819877,0.431514 0.819877,1.467148 0,1.294544 -0.560969,1.898665 -0.560969,0.560969 -1.639755,0.560969 -1.20824,0 -2.157572,-0.647272 -0.949332,-0.647271 -1.035635,-1.726058 l -4.962417,-0.04315 q -0.992483,0 -1.423998,0.0863 v 0.215757 q 0,3.322662 2.502784,5.307628 2.502783,1.941816 6.602172,1.941816 3.926782,0 6.429566,-1.596604 2.502784,-1.639755 2.502784,-5.566537 0,-2.243875 -1.035634,-3.581571 -1.035635,-1.337694 -2.891148,-1.984966 -1.81236,-0.647278 -4.876114,-1.121943 -0.992483,-0.345213 -1.5103,-0.992484 -0.517818,-0.647272 -0.517818,-1.380846 0,-0.733575 0.560969,-1.380847 0.604121,-0.690423 1.639755,-0.690423 0.992484,0 1.898665,0.733575 0.906179,0.733574 0.906179,1.596603 0,0.25891 -0.04315,0.345212 1.337695,0.258909 2.934299,0.258909 1.769209,0 3.236359,-0.258909 0,-2.459632 -0.906181,-4.271994 -0.906181,-1.855512 -2.847997,-2.675389 z m 24.16485,0.776725 q 0.172607,5.048721 0.172607,12.16871 0,6.688475 -0.215758,11.650892 v 1.035635 q 0,3.365813 -1.812356,4.660356 -1.812364,1.337695 -3.711029,1.510301 -0.60412,0.08631 -1.078785,0.08631 -2.718542,0 -4.574055,-0.30206 -1.812361,-0.258909 -3.452116,-1.208241 -1.639755,-0.949332 -2.934298,-2.934298 -0.345212,-0.474666 -0.517818,-1.46715 -0.172607,-0.949332 -0.172607,-1.855513 0,-0.517817 0.04316,-0.733574 1.035635,-0.431515 2.718541,-0.431515 0.215758,0 0.949332,0 0.733576,0 1.251393,0.0863 -1.5103,-0.388364 -2.847996,-1.380847 -1.337695,-0.992484 -1.855512,-2.243875 v 0.04315 q -1.035635,-1.984967 -1.251392,-5.221326 0,-3.840478 0.388362,-6.645323 0.431516,-2.847996 2.071271,-5.048719 1.682906,-2.243876 5.135022,-2.545936 1.16509,0 2.243875,0.345211 1.078787,0.30206 1.76921,0.992484 0,-0.776727 0.30206,-1.337695 1.553453,-0.172607 2.804843,-0.172607 1.12194,0 1.726061,0.04316 l 1.984962,0.04315 0.04316,0.863028 z m -1.337697,23.388087 q 0,-3.150056 0.129455,-6.170657 0.0863,-3.969934 0.0863,-5.911749 0,-6.688476 -0.172607,-11.737195 l -2.243871,-0.04315 q -0.776728,-0.04316 -2.287027,-0.04316 -1.423998,0 -1.423998,0.733575 l 0.04315,0.733575 v 0.388362 q 0,0.388364 -0.0863,0.388364 l -0.0863,-0.04315 q -0.474666,-1.035635 -1.467149,-1.510301 -0.949332,-0.517817 -2.287027,-0.517817 -3.667874,0 -5.350781,2.157572 -1.682906,2.114422 -2.028118,4.832963 -0.345211,2.675389 -0.345211,6.774778 0.129454,1.553452 0.388363,2.761693 0.258908,1.165089 0.819878,2.287026 1.337695,2.718541 5.609688,2.718541 0.345212,-0.04315 1.078787,-0.04315 1.467149,-0.04315 2.330177,-0.215757 0.906181,-0.215757 1.510302,-0.863029 -0.04315,0.30206 -0.04315,0.776726 l 0.04315,1.035635 q 0,1.769209 -0.733575,2.632238 -0.690423,0.906181 -1.898664,0.906181 -1.078786,0 -1.855513,-0.690423 -0.733574,-0.647272 -0.733574,-1.855513 -1.380846,-0.215756 -3.581571,-0.215756 -0.949332,0 -1.467149,0.129453 -0.517817,0.129454 -0.517817,0.560969 0,2.891147 1.984966,4.617206 2.028118,1.769208 4.962418,1.769208 l 3.58157,0.04316 q 0.733575,0 0.863029,-0.04316 1.769207,-0.215757 3.452117,-1.294543 1.726054,-1.035634 1.726054,-3.840479 z M 74.510895,18.278674 q 1.812361,0 2.416482,1.726058 0.647271,1.682908 0.647271,4.401448 l -0.04315,2.287027 q -0.129455,1.035636 -0.345212,1.596604 -0.172605,0.560969 -0.776726,0.949332 -0.560969,0.345212 -1.682907,0.345212 -1.984967,0 -3.106904,-1.46715 -1.121938,-1.467149 -1.121938,-3.538418 v -1.208241 q 0,-1.16509 0.474666,-2.330178 0.517817,-1.208241 1.423998,-1.984967 0.906181,-0.776727 2.11442,-0.776727 z m 2.589088,8.371382 q 0,-1.726058 -0.129455,-3.624721 -0.129454,-1.941816 -0.431514,-3.193208 -0.517818,-0.25891 -1.16509,-0.25891 -1.251391,0 -1.941815,0.647273 l 0.0863,-0.04316 q -0.906182,1.035639 -1.337696,2.114426 -0.388364,1.035635 -0.388364,2.416481 v 0.733574 q 0,1.639755 0.60412,2.67539 0.647272,0.992484 2.373331,0.992484 0.992483,0 1.423997,-0.258909 0.474665,-0.258908 0.604121,-0.733575 0.172605,-0.474665 0.30206,-1.467149 z m -4.660358,9.104956 q 0.08631,0.04315 0.129455,0.345212 0.04316,0.345212 0.0863,0.431514 l 0.776726,0.129454 q 0,0.86303 0.258908,1.251393 0.25891,0.388362 1.035635,0.388362 0.733576,0 1.423999,-0.60412 0.733574,-0.604119 0.733574,-1.553452 l 0.04316,-0.690422 q -0.647272,0.215756 -1.423999,0.258907 -0.733574,0.04315 -0.90618,0.04315 -0.863029,0 -1.251392,0.04315 -0.604121,0 -0.906181,-0.04315 z M 107.00397,14.136135 q 0,2.761693 -1.51029,5.178174 -1.51031,2.373331 -4.01308,3.797328 -2.45965,1.380846 -5.178178,1.380846 -0.733581,0 -1.078788,-0.04315 v 1.81236 q 0,4.142541 0.129451,8.975503 -0.431521,0 -1.20824,0.129454 -0.302069,0.04315 -1.337691,0.129454 -0.992484,0.129455 -1.898673,0.129455 -1.941811,0 -3.754171,-0.215758 0,-0.604121 -0.172608,-0.733574 -0.172609,-0.129454 -0.690424,-0.129454 -0.172609,-4.185691 -0.172609,-14.757797 v -5.221325 q 0,-7.2494442 -0.129451,-10.485803 3.279521,-0.9061807 6.731632,-0.9061807 3.581572,0 6.731621,1.2082406 3.193209,1.1650896 5.264479,3.624722 2.07127,2.4596321 2.28702,6.0843541 z m -1.29453,-0.90618 q -0.25892,-5.0055681 -4.01309,-7.2925951 -3.754177,-2.330179 -9.018657,-2.330179 -3.063756,0 -6.256964,0.8198775 0.172609,4.8329627 0.172609,15.3187656 v 7.594656 q 0,3.624721 0.129451,6.817929 1.165093,0.172606 3.322669,0.172606 2.848,0 3.883622,-0.345213 l 0.129461,-0.0863 Q 93.92908,29.71381 93.92908,25.959634 v -1.682906 q 0,-0.819878 -0.04318,-1.208242 0.776728,0.129456 1.553456,0.129456 2.41648,0 4.789814,-1.251393 2.41648,-1.251392 3.92678,-3.408965 1.55345,-2.157572 1.55345,-4.660356 z m -6.213822,0.690422 q 0,1.898665 -1.467141,2.416482 -1.423995,0.517818 -3.840484,0.560969 l -0.949327,0.04315 h -0.129452 q -0.345217,-1.078787 -0.345217,-3.538419 0,-2.028119 -0.04317,-2.934299 0.258913,-0.258909 1.81236,-0.258909 2.157576,0 3.624719,1.208241 0.647267,0.388363 0.992482,1.078786 0.345207,0.647272 0.345207,1.423997 z m -4.099385,-2.41648 q -0.819876,0 -1.380848,0.172605 0.04318,0.647272 0.04318,1.855513 v 1.251392 0.733575 q 0,0.647271 0.08635,0.949332 h 0.215756 q 2.071272,0 3.365816,-0.474667 1.33769,-0.517817 1.33769,-2.11442 0,-1.251393 -1.121934,-1.812362 -1.121936,-0.560968 -2.54594,-0.560968 z m 30.162887,2.243876 q 0.0864,0.690422 0.0864,1.078785 v 0.431514 q -0.0432,1.165091 -0.0432,3.365814 l 0.0432,4.832963 q 0.0432,1.639755 0.0432,4.876113 0,2.545936 -0.12945,5.221326 v 0.302061 q 0,0.90618 -0.12945,1.337695 -0.12946,0.431514 -0.77673,0.560968 h -0.60412 q -0.60413,0 -1.55344,-0.0863 l -1.2514,-0.04316 q -0.30206,0 -0.90618,0.0863 l -0.94934,0.04315 q -0.69042,-0.172605 -0.90618,-0.863029 -0.56096,-0.215757 -0.69041,-0.474666 -2.24396,1.380856 -4.44468,1.380856 -2.28703,0 -4.05624,-1.984966 -1.72606,-1.984968 -2.67539,-4.962418 -0.90619,-3.020602 -0.90619,-5.911748 0,-3.279511 1.12194,-5.60969 1.12195,-2.37333 3.06376,-3.581569 1.98497,-1.208241 4.44459,-1.208241 1.20825,0 1.85552,0.172605 0.69042,0.172606 1.2514,0.863029 0.0432,-0.215757 0.0863,-0.690423 0.0432,-0.474666 0.21575,-0.604121 0.17261,-0.129454 0.56098,-0.129454 0.38835,0 0.69041,0.0863 0.34522,0.04315 0.64728,0.04315 h 0.38836 q 1.12194,0 4.27199,0.215758 l 0.38836,0.388363 0.0432,0.474667 h 0.43151 z m -5.99805,-1.035636 -1.1651,-0.04316 q -0.43151,0 -0.51781,0.560969 -0.0863,0.517818 -0.0863,1.510301 v 0.215757 q -0.38836,-0.949332 -0.99249,-1.380847 -0.60412,-0.431514 -1.33769,-0.517817 -0.73358,-0.0863 -2.07128,-0.0863 -2.02811,0.04316 -3.71102,1.380846 -1.63975,1.294543 -2.58909,3.538419 -0.94934,2.243875 -0.94934,5.04872 0,2.545936 0.69043,5.221326 0.69042,2.67539 2.11443,4.530902 1.46714,1.81236 3.53841,1.81236 1.46716,0 3.0206,-0.690422 1.59661,-0.733575 2.67541,-1.812361 0,0.258908 -0.0864,0.733574 -0.0863,0.431514 -0.0863,0.776726 0,0.733575 0.51781,0.949332 0.34522,0 0.94934,-0.0863 l 0.90618,-0.04315 1.424,0.04315 q 0.94932,0.0863 1.38084,0.0863 h 0.51782 q 0.34521,-0.0863 0.43152,-0.345211 0.12945,-0.30206 0.12945,-0.819878 v -0.60412 q 0.17261,-2.545936 0.17261,-5.65284 l -0.0432,-4.74666 q -0.0864,-3.193207 -0.0864,-4.832963 0,-2.028118 0.0432,-3.063753 v -0.431514 q 0,-0.345212 -0.0863,-1.035634 -1.20824,-0.08631 -4.22884,-0.215758 z m -3.84049,6.041203 q 1.07879,0 1.51031,0.215757 0.47467,0.172606 0.60412,0.819878 0.12945,0.604121 0.12945,2.071269 v 2.373331 q 0,1.553452 -0.1726,2.416481 -0.12946,0.863028 -0.73358,1.337695 -0.56097,0.474666 -1.76921,0.474666 -1.7692,0 -2.80484,-1.337695 -1.03563,-1.337695 -1.03563,-3.322662 0,-1.423997 0.2589,-2.287027 0.25891,-1.165088 1.29455,-1.941816 1.03562,-0.819877 2.71853,-0.819877 z m -2.71853,3.754177 q -0.25891,0.863029 -0.25891,2.157573 0,3.365812 2.54593,3.365812 1.07879,0 1.55346,-0.474665 0.47467,-0.474667 0.56097,-1.294544 0.12945,-0.819878 0.12945,-2.502784 v -1.121938 l 0.0432,-1.294544 q 0,-0.690422 -0.21576,-0.992482 -0.17261,-0.302061 -0.77673,-0.302061 -1.5103,0 -2.41649,0.690424 -0.90617,0.690422 -1.16507,1.726057 z m 32.32043,4.530902 q -0.21576,3.020601 -0.47466,4.703508 -0.25892,1.639755 -0.81989,2.287027 -0.94933,1.337695 -2.54593,1.76921 -1.5966,0.474666 -3.88363,0.474666 -2.89115,0 -4.74666,-0.388363 -1.81237,-0.388363 -3.1932,-1.812362 l -0.38837,-0.388363 q -2.71855,-2.028117 -2.71855,-8.198775 v -1.337695 q 0,-2.545936 -0.12945,-3.624723 0,-1.682906 0.12945,-2.804843 0.17261,-1.121939 0.73358,-2.632238 l -0.0432,0.04315 q 0.38836,-1.596604 2.37334,-2.416481 2.02811,-0.819878 4.70351,-0.819878 0.34519,0.04315 1.59659,0.04315 l 1.03564,-0.04315 q 1.94181,0 3.71103,0.690423 1.76921,0.647272 2.71853,1.984967 l 0.1726,0.129455 q 1.1651,0.863028 1.51031,2.891147 0.34521,1.984966 0.34521,5.566536 -1.38085,0.215758 -2.02812,0.215758 -1.07877,0 -2.50278,-0.172606 -1.38085,-0.172605 -1.76921,-0.215757 -0.0432,-0.0863 -0.0864,-0.302061 -0.0432,-0.258908 -0.21576,-0.345211 -0.1726,-0.129454 -0.56096,-0.215757 -0.12945,-0.992484 -0.51782,-1.467149 -0.38836,-0.474667 -1.3377,-0.474667 -0.17261,0 -0.77672,0.0863 h 0.0432 q -1.03564,0.30206 -1.38085,1.121937 -0.34521,0.819878 -0.34521,2.114421 v 1.337697 q 0,0.474666 -0.0863,1.510301 l -0.0432,1.208241 q 0,0.517817 0.47466,0.690424 0.47466,0.129453 1.25139,0.129453 1.20824,0 1.76921,-0.388363 h -0.0432 q 0.25891,-0.129454 0.43151,-0.604121 0.21577,-0.517816 0.34522,-1.035634 0.12945,-0.560969 0.17261,-0.776725 1.03562,0.0863 1.6829,0.0863 l 1.3377,-0.04315 q 0.43151,-0.04315 1.29454,-0.04315 1.03562,0 1.5966,0.129453 l 0.34521,0.474666 -0.0432,0.302061 0.56097,0.0863 z m -4.70351,-0.992483 q -0.51782,0.04316 -1.424,0.04316 -0.51781,0 -0.64727,-0.04316 -0.30206,1.467148 -0.90618,2.157573 -0.56097,0.647271 -2.11442,0.647271 -1.25139,0 -2.11441,-0.560969 -0.86304,-0.560968 -0.86304,-1.682906 v -1.553452 q 0,-2.287028 0.17261,-3.53842 0.1726,-1.251392 0.81988,-1.941816 0.69042,-0.733574 2.11442,-0.733574 1.20824,0 1.98496,0.776726 0.77673,0.776727 0.99249,2.114421 2.24387,0.388364 3.88363,0.388364 1.03562,0 1.59659,-0.172606 0,-0.431515 -0.0864,-2.589087 -0.0432,-2.200724 -0.47466,-3.408965 -0.38837,-1.20824 -1.12193,-1.769209 -0.99248,-0.949332 -2.50279,-1.380847 -1.46715,-0.474666 -3.15005,-0.474666 l -1.63976,0.04315 q -0.56097,0 -0.86303,-0.04315 -2.89115,0 -4.48775,0.819878 -1.5966,0.776725 -2.28703,2.545935 -0.64727,1.726058 -0.64727,4.789811 0.12946,1.16509 0.12946,2.459634 l -0.0432,2.459632 q 0,3.840479 1.20825,6.343263 1.25139,2.502785 4.66035,3.063753 l 2.02812,0.04316 q 1.46715,0.08631 2.28703,0.08631 2.02811,0 3.45211,-0.431516 1.42401,-0.431514 2.24389,-1.596603 0.5178,-0.517817 0.73356,-2.157572 0.25891,-1.639755 0.47467,-4.617206 -0.60412,-0.129454 -1.63976,-0.129454 z m 17.30371,-3.408965 q 1.03563,1.639756 1.5103,2.459633 2.02812,3.193207 3.45212,5.609688 1.42399,2.37333 2.71854,5.005568 -0.86303,0 -2.848,0.08631 -2.15757,0.0863 -3.32266,0.0863 -0.86303,0 -1.38085,-0.215758 -0.47466,-0.172605 -0.77672,-0.776726 l -0.38836,-0.0863 q -1.29455,-1.984966 -2.41649,-4.48775 -0.43151,-0.949333 -0.69043,-1.423998 l 0.0432,2.545935 q 0,2.589087 -0.34522,4.315145 -0.64726,-0.04315 -1.94181,-0.04315 h -0.69044 q -1.38085,0.08629 -2.15757,0.08629 -0.17261,0 -0.69042,0 -0.47467,0.04315 -0.77673,-0.172606 -0.2589,-0.215757 -0.2589,-0.733575 -0.21577,0 -0.81989,-0.0863 -0.17261,-4.530902 -0.17261,-10.3995 0,-3.495267 0.0863,-10.658407 0.0864,-7.249445 0.0864,-11.0899237 1.3377,0 2.07127,-0.043157 l 2.37334,-0.043147 q 0.43151,0 1.38084,0.086304 l 0.90618,0.043147 v 0.8198775 l 0.86303,0.043147 v 9.8385304 q 0,0.86303 -0.0432,1.294544 l -0.0432,1.337695 0.77672,-1.294543 q 1.1651,-1.941816 2.24388,-3.236359 0.90618,0.30206 2.37333,0.30206 l 1.85551,-0.04316 q 1.29455,-0.0863 1.98497,-0.0863 0.94933,0 1.5103,0.04315 -0.12945,0.215758 -0.30206,0.431514 -0.12945,0.172607 -0.25891,0.388365 0.86303,0 1.424,0.04315 -1.46715,2.287027 -2.71854,4.013084 -1.25139,1.682907 -3.19321,4.185692 z m 1.38085,11.952952 q 0.99248,0 2.80484,-0.0863 1.46715,-0.0863 1.94182,-0.0863 -1.12194,-2.243876 -2.33017,-4.271994 -1.20825,-2.028119 -3.32267,-5.393931 l -1.85551,-2.977451 2.45963,-3.236359 q 3.3658,-4.444599 4.66036,-6.429565 h -0.60413 l -1.85551,0.04315 q -1.46715,0.0863 -2.20072,0.0863 -1.55345,0 -2.15757,-0.258908 -0.99248,1.165089 -1.85552,2.761693 -1.3377,2.330178 -2.54593,3.408964 -0.0863,-0.949332 -0.0863,-1.639756 0,-1.251391 0.0432,-1.941814 l 0.0432,-2.028118 V 3.0893633 q -0.77673,-0.086304 -1.29455,-0.086304 l -1.55345,0.043157 -3.0206,0.043147 q 0,3.5815709 -0.0864,10.6584097 -0.0864,7.076837 -0.0864,10.701559 0,5.437083 0.17261,9.967985 0.94933,0.0863 1.424,0.0863 0.69042,0 1.89866,-0.0863 l 1.5966,-0.04316 0.77673,0.04316 q 0.25891,-1.380847 0.25891,-3.797327 l -0.0432,-2.67539 q -0.0432,-0.690423 -0.0432,-1.855513 0.77673,0.992483 1.38084,2.114422 0.64727,1.078786 1.38085,2.675389 1.2514,2.545936 1.89866,3.538419 0.73358,0.172606 2.20073,0.172606 z"
       id="text2"
       aria-label="AMsgPack" />
  </g>
</svg>
