<?xml version="1.0" encoding="UTF-8"?>
<svg width="170mm" height="47mm" version="1.1" viewBox="0 0 170 47" xmlns="http://www.w3.org/2000/svg">
 <path d="m25 36q-1.7 0.3-2.8 0.3-2 0-3.9-0.43-0.17-0.52-0.3-0.65-0.13-0.13-0.3-0.17-0.17 0-0.26-0.043-0.35-1.1-0.95-3.5-0.35-1.4-0.6-2.1-0.22-0.65-0.47-0.65-0.35 0-0.6 0.043-0.22 0-0.6 0-0.3 0.82-0.6 2.6-0.35 1.7-0.6 2.7-0.26 0.99-0.73 1.9-0.13 0-0.39 0.043-0.22 0.043-0.56 0.043-0.47-0.043-2-0.043l-4.1-0.086 0.13-0.86h-0.99l0.6-3.2q1.2-7 2.6-14 1.4-6.8 3.6-14 0.78-0.086 0.91-0.086 0.17 0 1.1 0.043 0.95 0.043 4-0.26 0.17 0.73 0.22 0.95l0.65-0.086q0.39 2.2 2.7 12 0.86 3.5 0.91 3.8zm-8.2-32q-1.9 0.17-3.8 0.17h-0.91q-0.52 0-0.65 0.043-2.1 6.9-3.5 14-1.3 6.6-2.7 14-0.13 0.82-0.26 1.6-0.13 0.69-0.22 1.1l0.086 0.043h1l3.4 0.043q0.43 0.043 1 0.043 0.47 0 0.56-0.043l0.13-0.043q0.39-0.65 0.6-1.6 0.22-0.91 0.47-2.4 0.43-2.4 0.82-3.2 0.47 0 0.78 0 0.3-0.043 0.47-0.043h0.56l0.86 0.086q0.35 0.78 0.69 2.2 0.39 1.4 0.47 1.7 0.43 2 0.86 3.2h0.043q1.7 0.39 3.5 0.39 1.1 0 2.2-0.22v-0.043l-3.2-15zm-4.1 18q0.52-3.8 0.47-3.5 0.35-2.9 0.56-4.2 0.26-1.3 0.52-1.3 0.3 0 0.65 2 0.39 2 0.99 7l-2.2 0.043zm2.1-5.4-0.69 4.9h1.3zm30 19q-1.2-0.17-2.8-0.17l-2.1 0.043q-0.6 0.043-1.7 0.043-0.043-0.3-0.043-0.91l-0.82 0.043q-0.13-2.3-0.13-7.7l-0.086-5.3q-0.13 0.35-0.52 1.4-0.35 1-0.69 1.6-0.35 0.47-0.65 0.47-0.35 0-0.86-0.86-0.65-0.043-1.6-2.2-0.043 1-0.043 3 0 3.8 0.43 10-1.7 0.26-3.6 0.26l-1.4 0.043q-1 0-1.6-0.22-0.56-0.17-0.56-0.78h-0.22q-0.35 0-0.6-0.52-0.086-0.26-0.13-2 0-1.8 0-5 0-12 0.13-23 1.2-0.39 2.6-0.39 0.82 0 1.3 0.043l1.4 0.043q0.78 0 1.3-0.043l0.6 0.91 0.26-0.043q0.82 0.95 1.8 3.9l0.39 1.1q0.3-1.4 0.95-3.2 0.69-1.9 1.3-2.7 0.6 0.086 1 0.086 0.78 0 2.8-0.086 1.7-0.13 3.1-0.13l-0.043 0.86h0.91q-0.043 1.1-0.043 3.7l0.043 4.5q0.043 1.5 0.043 4.6v1.6q0 1.6-0.086 2.4v-0.043zm-1.2-15q0.086-0.86 0.086-2.5v-1.7q0-2.9-0.043-4.4l-0.043-4.4q0-2.2 0.043-3.3-1.3 0-3 0.13l-2.7 0.086q-0.6 0-0.69-0.043-0.39 0.52-0.86 1.9-0.47 1.3-0.86 2.6-0.26 0.86-0.52 1.6-0.22 0.69-0.3 0.65-0.26 0-0.6-0.78-0.35-0.78-1-2.5-0.39-1.1-0.78-2-0.39-0.99-0.69-1.3h-0.043q-0.47 0.043-1.5 0.043l-1.6-0.043h-0.69q-1.4 0-2.1 0.22-0.13 11-0.13 22 0 4.6 0.043 5.9 0.086 1.3 0.26 1.3l3.2 0.043q1.6 0 2.8-0.17-0.39-5.9-0.39-10 0-3.2 0.26-6.4l0.13 0.43 0.35 0.91q0.69 2 1.3 3.3 0.56 1.3 0.95 1.3 0.17 0 0.6-1 0.43-1 0.86-2.2 0.95-2.5 1.3-3 0.39 3.5 0.47 11 0 0.99 0.043 2.8 0.043 1.8 0.086 3l2.7-0.043h1.6q0.47 0 1.4 0.086zm22 0.086q-1.5 0.26-3.3 0.26-1.5 0-3.5-0.35l0.043-0.35q0-0.26-0.22-0.35-0.22-0.13-0.43-0.13-0.22-0.043-0.26-0.043l0.043-0.35q0-0.69-0.43-0.95-0.43-0.3-1.1-0.43-0.78 0.22-1.2 0.65-0.43 0.43-0.43 0.95 0 0.82 0.86 1.2l-0.086-0.043q4.8 0.78 7.5 2.5 2.6 1.7 2.6 5.5 0 4-2.6 5.8-2.6 1.8-6.8 1.8-3 0-5.4-1.2-2.4-1.1-3.7-3.1-1.3-2-1.3-4.3v-0.6q1.3-0.17 2.9-0.17l2.2 0.043q0.69 0.043 2 0.043 0 0.35 0.22 0.86h0.65q0 1.5 1.9 1.5 1.8 0 1.8-1.7 0-0.65-0.69-0.91-0.65-0.3-2.1-0.6-1.9-0.35-2.8-0.78h0.043q-2.6-0.91-4.2-2.9-1.6-2.1-1.6-4.3 0-2 1.3-3.8 1.3-1.8 3.5-2.5 1.5-0.43 4.5-0.43 2.9 0 4.7 0.43 1.9 0.43 3 1.9 2.6 2.1 2.6 6.4zm-4.7-8.2q-2.3-0.52-5.3-0.52-8.8 0-8.8 6.3 0 1.9 1.2 3.6 1.2 1.6 3.4 2.4 1 0.47 3.3 0.91 1.9 0.43 2.7 0.86 0.82 0.43 0.82 1.5 0 1.3-0.56 1.9-0.56 0.56-1.6 0.56-1.2 0-2.2-0.65-0.95-0.65-1-1.7l-5-0.043q-0.99 0-1.4 0.086v0.22q0 3.3 2.5 5.3 2.5 1.9 6.6 1.9 3.9 0 6.4-1.6 2.5-1.6 2.5-5.6 0-2.2-1-3.6-1-1.3-2.9-2-1.8-0.65-4.9-1.1-0.99-0.35-1.5-0.99-0.52-0.65-0.52-1.4 0-0.73 0.56-1.4 0.6-0.69 1.6-0.69 0.99 0 1.9 0.73 0.91 0.73 0.91 1.6 0 0.26-0.043 0.35 1.3 0.26 2.9 0.26 1.8 0 3.2-0.26 0-2.5-0.91-4.3-0.91-1.9-2.8-2.7zm24 0.78q0.17 5 0.17 12 0 6.7-0.22 12v1q0 3.4-1.8 4.7-1.8 1.3-3.7 1.5-0.6 0.086-1.1 0.086-2.7 0-4.6-0.3-1.8-0.26-3.5-1.2t-2.9-2.9q-0.35-0.47-0.52-1.5-0.17-0.95-0.17-1.9 0-0.52 0.043-0.73 1-0.43 2.7-0.43 0.22 0 0.95 0 0.73 0 1.3 0.086-1.5-0.39-2.8-1.4-1.3-0.99-1.9-2.2v0.043q-1-2-1.3-5.2 0-3.8 0.39-6.6 0.43-2.8 2.1-5 1.7-2.2 5.1-2.5 1.2 0 2.2 0.35 1.1 0.3 1.8 0.99 0-0.78 0.3-1.3 1.6-0.17 2.8-0.17 1.1 0 1.7 0.043l2 0.043 0.043 0.86zm-1.3 23q0-3.2 0.13-6.2 0.086-4 0.086-5.9 0-6.7-0.17-12l-2.2-0.043q-0.78-0.043-2.3-0.043-1.4 0-1.4 0.73l0.043 0.73v0.39q0 0.39-0.086 0.39l-0.086-0.043q-0.47-1-1.5-1.5-0.95-0.52-2.3-0.52-3.7 0-5.4 2.2-1.7 2.1-2 4.8-0.35 2.7-0.35 6.8 0.13 1.6 0.39 2.8 0.26 1.2 0.82 2.3 1.3 2.7 5.6 2.7 0.35-0.043 1.1-0.043 1.5-0.043 2.3-0.22 0.91-0.22 1.5-0.86-0.043 0.3-0.043 0.78l0.043 1q0 1.8-0.73 2.6-0.69 0.91-1.9 0.91-1.1 0-1.9-0.69-0.73-0.65-0.73-1.9-1.4-0.22-3.6-0.22-0.95 0-1.5 0.13-0.52 0.13-0.52 0.56 0 2.9 2 4.6 2 1.8 5 1.8l3.6 0.043q0.73 0 0.86-0.043 1.8-0.22 3.5-1.3 1.7-1 1.7-3.8zm-8.6-18q1.8 0 2.4 1.7 0.65 1.7 0.65 4.4l-0.043 2.3q-0.13 1-0.35 1.6-0.17 0.56-0.78 0.95-0.56 0.35-1.7 0.35-2 0-3.1-1.5-1.1-1.5-1.1-3.5v-1.2q0-1.2 0.47-2.3 0.52-1.2 1.4-2 0.91-0.78 2.1-0.78zm2.6 8.4q0-1.7-0.13-3.6-0.13-1.9-0.43-3.2-0.52-0.26-1.2-0.26-1.3 0-1.9 0.65l0.086-0.043q-0.91 1-1.3 2.1-0.39 1-0.39 2.4v0.73q0 1.6 0.6 2.7 0.65 0.99 2.4 0.99 0.99 0 1.4-0.26 0.47-0.26 0.6-0.73 0.17-0.47 0.3-1.5zm-4.7 9.1q0.086 0.043 0.13 0.35 0.043 0.35 0.086 0.43l0.78 0.13q0 0.86 0.26 1.3 0.26 0.39 1 0.39 0.73 0 1.4-0.6 0.73-0.6 0.73-1.6l0.043-0.69q-0.65 0.22-1.4 0.26-0.73 0.043-0.91 0.043-0.86 0-1.3 0.043-0.6 0-0.91-0.043zm35-22q0 2.8-1.5 5.2-1.5 2.4-4 3.8-2.5 1.4-5.2 1.4-0.73 0-1.1-0.043v1.8q0 4.1 0.13 9-0.43 0-1.2 0.13-0.3 0.043-1.3 0.13-0.99 0.13-1.9 0.13-1.9 0-3.8-0.22 0-0.6-0.17-0.73-0.17-0.13-0.69-0.13-0.17-4.2-0.17-15v-5.2q0-7.2-0.13-10 3.3-0.91 6.7-0.91 3.6 0 6.7 1.2 3.2 1.2 5.3 3.6 2.1 2.5 2.3 6.1zm-1.3-0.91q-0.26-5-4-7.3-3.8-2.3-9-2.3-3.1 0-6.3 0.82 0.17 4.8 0.17 15v7.6q0 3.6 0.13 6.8 1.2 0.17 3.3 0.17 2.8 0 3.9-0.35l0.13-0.086q-0.13-4.2-0.13-7.9v-1.7q0-0.82-0.043-1.2 0.78 0.13 1.6 0.13 2.4 0 4.8-1.3 2.4-1.3 3.9-3.4 1.6-2.2 1.6-4.7zm-6.2 0.69q0 1.9-1.5 2.4-1.4 0.52-3.8 0.56l-0.95 0.043h-0.13q-0.35-1.1-0.35-3.5 0-2-0.043-2.9 0.26-0.26 1.8-0.26 2.2 0 3.6 1.2 0.65 0.39 0.99 1.1 0.35 0.65 0.35 1.4zm-4.1-2.4q-0.82 0-1.4 0.17 0.043 0.65 0.043 1.9v2q0 0.65 0.086 0.95h0.22q2.1 0 3.4-0.47 1.3-0.52 1.3-2.1 0-1.3-1.1-1.8-1.1-0.56-2.5-0.56zm30 2.2q0.086 0.69 0.086 1.1v0.43q-0.043 1.2-0.043 3.4l0.043 4.8q0.043 1.6 0.043 4.9 0 2.5-0.13 5.2v0.3q0 0.91-0.13 1.3-0.13 0.43-0.78 0.56h-0.6q-0.6 0-1.6-0.086l-1.3-0.043q-0.3 0-0.91 0.086l-0.95 0.043q-0.69-0.17-0.91-0.86-0.56-0.22-0.69-0.47-2.2 1.4-4.4 1.4-2.3 0-4.1-2-1.7-2-2.7-5-0.91-3-0.91-5.9 0-3.3 1.1-5.6 1.1-2.4 3.1-3.6 2-1.2 4.4-1.2 1.2 0 1.9 0.17 0.69 0.17 1.3 0.86 0.043-0.22 0.086-0.69 0.043-0.47 0.22-0.6 0.17-0.13 0.56-0.13 0.39 0 0.69 0.086 0.35 0.043 0.65 0.043h0.39q1.1 0 4.3 0.22l0.39 0.39 0.043 0.47h0.43zm-6-1-1.2-0.043q-0.43 0-0.52 0.56-0.086 0.52-0.086 1.5v0.22q-0.39-0.95-0.99-1.4-0.6-0.43-1.3-0.52-0.73-0.086-2.1-0.086-2 0.043-3.7 1.4-1.6 1.3-2.6 3.5-0.95 2.2-0.95 5 0 2.5 0.69 5.2 0.69 2.7 2.1 4.5 1.5 1.8 3.5 1.8 1.5 0 3-0.69 1.6-0.73 2.7-1.8 0 0.26-0.086 0.73-0.086 0.43-0.086 0.78 0 0.73 0.52 0.95 0.35 0 0.95-0.086l0.91-0.043 1.4 0.043q0.95 0.086 1.4 0.086h0.52q0.35-0.086 0.43-0.35 0.13-0.3 0.13-0.82v-0.6q0.17-2.5 0.17-5.7l-0.043-4.7q-0.086-3.2-0.086-4.8 0-2 0.043-3.1v-0.43q0-0.35-0.086-1-1.2-0.086-4.2-0.22zm-3.8 6q1.1 0 1.5 0.22 0.47 0.17 0.6 0.82 0.13 0.6 0.13 2.1v2.4q0 1.6-0.17 2.4-0.13 0.86-0.73 1.3-0.56 0.47-1.8 0.47-1.8 0-2.8-1.3-1-1.3-1-3.3 0-1.4 0.26-2.3 0.26-1.2 1.3-1.9 1-0.82 2.7-0.82zm-2.7 3.8q-0.26 0.86-0.26 2.2 0 3.4 2.5 3.4 1.1 0 1.6-0.47 0.47-0.47 0.56-1.3 0.13-0.82 0.13-2.5v-1.1l0.043-1.3q0-0.69-0.22-0.99-0.17-0.3-0.78-0.3-1.5 0-2.4 0.69-0.91 0.69-1.2 1.7zm32 4.5q-0.22 3-0.47 4.7-0.26 1.6-0.82 2.3-0.95 1.3-2.5 1.8-1.6 0.47-3.9 0.47-2.9 0-4.7-0.39-1.8-0.39-3.2-1.8l-0.39-0.39q-2.7-2-2.7-8.2v-1.3q0-2.5-0.13-3.6 0-1.7 0.13-2.8 0.17-1.1 0.73-2.6l-0.043 0.043q0.39-1.6 2.4-2.4 2-0.82 4.7-0.82 0.35 0.043 1.6 0.043l1-0.043q1.9 0 3.7 0.69 1.8 0.65 2.7 2l0.17 0.13q1.2 0.86 1.5 2.9 0.35 2 0.35 5.6-1.4 0.22-2 0.22-1.1 0-2.5-0.17-1.4-0.17-1.8-0.22-0.043-0.086-0.086-0.3-0.043-0.26-0.22-0.35-0.17-0.13-0.56-0.22-0.13-0.99-0.52-1.5-0.39-0.47-1.3-0.47-0.17 0-0.78 0.086h0.043q-1 0.3-1.4 1.1-0.35 0.82-0.35 2.1v1.3q0 0.47-0.086 1.5l-0.043 1.2q0 0.52 0.47 0.69 0.47 0.13 1.3 0.13 1.2 0 1.8-0.39h-0.043q0.26-0.13 0.43-0.6 0.22-0.52 0.35-1 0.13-0.56 0.17-0.78 1 0.086 1.7 0.086l1.3-0.043q0.43-0.043 1.3-0.043 1 0 1.6 0.13l0.35 0.47-0.043 0.3 0.56 0.086zm-4.7-0.99q-0.52 0.043-1.4 0.043-0.52 0-0.65-0.043-0.3 1.5-0.91 2.2-0.56 0.65-2.1 0.65-1.3 0-2.1-0.56-0.86-0.56-0.86-1.7v-1.6q0-2.3 0.17-3.5 0.17-1.3 0.82-1.9 0.69-0.73 2.1-0.73 1.2 0 2 0.78 0.78 0.78 0.99 2.1 2.2 0.39 3.9 0.39 1 0 1.6-0.17 0-0.43-0.086-2.6-0.043-2.2-0.47-3.4-0.39-1.2-1.1-1.8-0.99-0.95-2.5-1.4-1.5-0.47-3.2-0.47l-1.6 0.043q-0.56 0-0.86-0.043-2.9 0-4.5 0.82-1.6 0.78-2.3 2.5-0.65 1.7-0.65 4.8 0.13 1.2 0.13 2.5l-0.043 2.5q0 3.8 1.2 6.3 1.3 2.5 4.7 3.1l2 0.043q1.5 0.086 2.3 0.086 2 0 3.5-0.43 1.4-0.43 2.2-1.6 0.52-0.52 0.73-2.2 0.26-1.6 0.47-4.6-0.6-0.13-1.6-0.13zm17-3.4q1 1.6 1.5 2.5 2 3.2 3.5 5.6 1.4 2.4 2.7 5-0.86 0-2.8 0.086-2.2 0.086-3.3 0.086-0.86 0-1.4-0.22-0.47-0.17-0.78-0.78l-0.39-0.086q-1.3-2-2.4-4.5-0.43-0.95-0.69-1.4l0.043 2.5q0 2.6-0.35 4.3-0.65-0.043-1.9-0.043h-0.69q-1.4 0.086-2.2 0.086-0.17 0-0.69 0-0.47 0.043-0.78-0.17-0.26-0.22-0.26-0.73-0.22 0-0.82-0.086-0.17-4.5-0.17-10 0-3.5 0.086-11 0.086-7.2 0.086-11 1.3 0 2.1-0.043l2.4-0.043q0.43 0 1.4 0.086l0.91 0.043v0.82l0.86 0.043v9.8q0 0.86-0.043 1.3l-0.043 1.3 0.78-1.3q1.2-1.9 2.2-3.2 0.91 0.3 2.4 0.3l1.9-0.043q1.3-0.086 2-0.086 0.95 0 1.5 0.043-0.13 0.22-0.3 0.43-0.13 0.17-0.26 0.39 0.86 0 1.4 0.043-1.5 2.3-2.7 4-1.3 1.7-3.2 4.2zm1.4 12q0.99 0 2.8-0.086 1.5-0.086 1.9-0.086-1.1-2.2-2.3-4.3-1.2-2-3.3-5.4l-1.9-3 2.5-3.2q3.4-4.4 4.7-6.4h-0.6l-1.9 0.043q-1.5 0.086-2.2 0.086-1.6 0-2.2-0.26-0.99 1.2-1.9 2.8-1.3 2.3-2.5 3.4-0.086-0.95-0.086-1.6 0-1.3 0.043-1.9l0.043-2v-9.5q-0.78-0.086-1.3-0.086l-1.6 0.043-3 0.043q0 3.6-0.086 11-0.086 7.1-0.086 11 0 5.4 0.17 10 0.95 0.086 1.4 0.086 0.69 0 1.9-0.086l1.6-0.043 0.78 0.043q0.26-1.4 0.26-3.8l-0.043-2.7q-0.043-0.69-0.043-1.9 0.78 0.99 1.4 2.1 0.65 1.1 1.4 2.7 1.3 2.5 1.9 3.5 0.73 0.17 2.2 0.17z" fill="#00b592" stroke="#00b592" stroke-miterlimit="1.6" stroke-width=".79" style="paint-order:stroke markers fill" aria-label="AMsgPack"/>
</svg>
